<svg width="128" height="128" viewBox="0 0 128 128" fill="none" xmlns="http://www.w3.org/2000/svg">
<rect width="128" height="128" fill="#0C0C0C"/>
<path d="M69.8592 30.2255C71.0911 30.2255 71.707 30.8717 71.707 32.1642C71.707 32.8255 71.4967 33.592 71.0761 34.4637C70.6854 35.3053 70.37 35.9967 70.1296 36.5377L45.6563 97L16 30.7214H40.6084L54.9408 64.4468L64.9915 39.288C66.0732 36.5828 66.7793 34.629 67.1099 33.4267C67.4404 32.2243 67.8009 31.3977 68.1915 30.9469C68.5822 30.4659 69.138 30.2255 69.8592 30.2255Z" fill="white"/>
<path d="M58.1408 96.7745C56.9089 96.7745 56.293 96.1283 56.293 94.8358C56.293 94.1745 56.5033 93.408 56.9239 92.5363C57.3146 91.6947 57.63 91.0033 57.8704 90.4623L82.3437 30L112 96.2786H87.3915L73.0592 62.5532L63.0084 87.712C61.9268 90.4172 61.2207 92.371 60.8901 93.5733C60.5596 94.7757 60.1991 95.6023 59.8085 96.0531C59.4178 96.5341 58.862 96.7745 58.1408 96.7745Z" fill="white"/>
</svg>
